<?xml version="1.0" encoding="utf-8"?>
<!-- Generator: Adobe Illustrator 19.0.0, SVG Export Plug-In . SVG Version: 6.00 Build 0)  -->
<svg version="1.1" id="图层_1" xmlns="http://www.w3.org/2000/svg" xmlns:xlink="http://www.w3.org/1999/xlink" x="0px" y="0px"
	 width="1738px" height="186.7px" viewBox="0 0 1738 186.7" style="enable-background:new 0 0 1738 186.7;" xml:space="preserve">
<style type="text/css">
	.st0{fill-rule:evenodd;clip-rule:evenodd;fill:#D71820;}
	.st1{fill:#221E1F;}
	.st2{font-family:'FZCSK--GBK1-0';}
	.st3{font-size:96.2029px;}
	.st4{letter-spacing:13;}
	.st5{font-family:'OpenSans-Bold';}
	.st6{font-size:45.7844px;}
	.st7{letter-spacing:3;}
</style>
<g>
	<path class="st0" d="M112.4,57.7v113.2c5.6-1.4,10.9-3.3,15.9-5.7V35.6c-1.7,0.8-5,2.3-7.6,4.4C115.3,44.4,112.4,49.9,112.4,57.7"
		/>
	<path class="st0" d="M66,40.1c-2.6-2.1-6-3.6-7.6-4.4v129.5c5,2.5,10.3,4.4,15.9,5.8V57.7C74.3,49.9,71.5,44.4,66,40.1"/>
	<path class="st0" d="M125,20.1c-9.7-4.2-20.4-6.5-31.6-6.5c-11.2,0-21.8,2.3-31.5,6.5c-1.5,0.8-3.5,2.3-3.5,4.6
		c0,4.2,5.9,3.3,13.2,9.2c6.8,5.4,10.3,13,10.3,21.6v117c3.8,0.5,7.6,0.8,11.5,0.8c3.9,0,7.8-0.3,11.5-0.8v-117
		c0-8.5,3.5-16.1,10.3-21.6c7.3-5.8,13.2-5,13.2-9.2C128.4,22.3,126.5,20.9,125,20.1"/>
	<path class="st0" d="M93.4,0C41.8,0,0,41.8,0,93.4c0,51.6,41.8,93.4,93.4,93.4c51.6,0,93.3-41.8,93.3-93.4
		C186.7,41.8,144.9,0,93.4,0 M93.4,179c-47.3,0-85.6-38.3-85.6-85.6c0-47.3,38.3-85.6,85.6-85.6c47.3,0,85.6,38.3,85.6,85.6
		C179,140.7,140.7,179,93.4,179"/>
	<path class="st0" d="M13.5,93.4c0,28.4,14.8,53.3,37.1,67.4V99.6c-9.1,0.2-12.4,5.7-13.4,7.9c-0.8,1.8-1.4,3.6-3,3.6
		c-2.6,0-4.8-7.6-4.8-17c0-9.4,2.1-17,4.8-17c1.6,0,2.1,1.8,3,3.6c1,2.1,4.4,7.6,13.4,7.9V25.9C28.3,40.1,13.5,65,13.5,93.4"/>
	<path class="st0" d="M160.1,107.5c-0.8,1.8-1.4,3.6-2.9,3.6c-2.6,0-4.8-7.6-4.8-17c0-9.4,2.1-17,4.8-17c1.6,0,2.1,1.8,2.9,3.6
		c1,2.1,4.2,7.4,12.9,7.9c-1.6-26.3-15.9-49.2-36.9-62.6v134.8c20.6-13.1,34.8-35.4,36.8-61.1C164.3,100.1,161.1,105.4,160.1,107.5"
		/>
</g>
<g>
	<text transform="matrix(1 0 0 1 202.5806 97.0687)" class="st1 st2 st3 st4">中信集团诉讼仲裁案件管理系统</text>
	<text transform="matrix(1 0 0 1 207.518 167.9595)" class="st1 st5 st6 st7">Cltlc Group Litigation And Arbitration Management System</text>
</g>
</svg>
